<?xml version="1.0" encoding="iso-8859-1"?>
<!-- Generator: Adobe Illustrator 21.0.0, SVG Export Plug-In . SVG Version: 6.00 Build 0)  -->
<svg xmlns="http://www.w3.org/2000/svg" xmlns:xlink="http://www.w3.org/1999/xlink" version="1.1" id="Capa_1" x="0px" y="0px" viewBox="0 0 512 512" style="enable-background:new 0 0 512 512;" xml:space="preserve" width="512" height="512">
<g>
	<path d="M271,286c0-24.813-20.187-45-45-45s-45,20.187-45,45s20.187,45,45,45S271,310.813,271,286z M211,286   c0-8.271,6.729-15,15-15s15,6.729,15,15s-6.729,15-15,15S211,294.271,211,286z"/>
	<path d="M256,361c-24.813,0-45,20.187-45,45s20.187,45,45,45s45-20.187,45-45S280.813,361,256,361z M256,421   c-8.271,0-15-6.729-15-15s6.729-15,15-15s15,6.729,15,15S264.271,421,256,421z"/>
	<circle cx="316" cy="316" r="15"/>
	<path d="M376,0c-19.569,0-36.251,12.56-42.433,30.039C332.711,30.023,331.856,30,331,30c-20.035,0-38.876,4.132-54.295,11.783   C266.457,34.199,253.956,30,241,30c-4.656,0-9.304,0.548-13.823,1.615C213.266,12.065,190.489,0,166,0c-41.355,0-75,33.645-75,75   c0,21.396,9.021,40.713,23.441,54.389c-0.472,5.633-30.608,85.817,14.769,176.573c14.255,28.509,21.79,60.427,21.79,92.302V497   c0,8.284,6.716,15,15,15h180c8.284,0,15-6.716,15-15v-98.736c0-31.875,7.535-63.793,21.79-92.303   c0.992-1.984,1.955-3.998,2.897-6.023C405.858,295.494,421,277.487,421,256V90c0-7.759-2.115-15.303-6.171-22.297   C418.744,61.033,421,53.277,421,45C421,20.187,400.813,0,376,0z M376,30c8.271,0,15,6.729,15,15s-6.729,15-15,15s-15-6.729-15-15   S367.729,30,376,30z M166,150c14.212,0,27.946-3.988,39.789-11.413C215.931,145.945,228.21,150,241,150   c12.957,0,25.456-4.198,35.705-11.783C292.124,145.868,310.965,150,331,150v30H135.136c1.751-18.387,5.813-32.746,6.129-34.211   C149.015,148.505,157.334,150,166,150z M331,398.264V482H181v-83.736c0-36.508-8.63-73.065-24.957-105.719   c-12.932-25.864-20.191-54.004-21.594-82.545H331v46c0,17.039,9.519,31.895,23.518,39.532C339.138,327.423,331,362.861,331,398.264   z M391,256c0,7.809-6.001,14.237-13.632,14.931c-1.077-0.133-2.153-0.156-3.212-0.056C366.753,269.961,361,263.646,361,256V134.1   c0-8.997-7.879-15.979-16.813-14.89C339.881,119.734,335.444,120,331,120c-18.572,0-36.001-4.607-47.817-12.639   c-6.249-4.248-14.679-3.185-19.679,2.479C257.805,116.296,249.602,120,241,120c-8.825,0-17.167-3.864-22.886-10.602   c-2.644-3.115-6.444-5.016-10.523-5.265c-4.079-0.249-8.082,1.177-11.084,3.948C188.177,115.767,177.343,120,166,120   c-24.813,0-45-20.187-45-45s20.187-45,45-45c17.512,0,33.566,10.283,40.899,26.196c1.709,3.711,4.859,6.563,8.721,7.899   c3.862,1.335,8.101,1.037,11.738-0.824C231.597,61.101,236.187,60,241,60c8.603,0,16.805,3.703,22.504,10.16   c5,5.665,13.431,6.727,19.679,2.479C294.999,64.607,312.428,60,331,60c0.865,0,1.73,0.019,2.593,0.039   C339.796,77.477,356.46,90,376,90c5.158,0,10.11-0.884,14.729-2.488C390.895,88.343,391,89.173,391,90V256z"/>
</g>















</svg>
